<mxfile host="Electron" modified="2024-04-04T14:20:35.321Z" agent="Mozilla/5.0 (Windows NT 10.0; Win64; x64) AppleWebKit/537.36 (KHTML, like Gecko) draw.io/24.1.0 Chrome/120.0.6099.109 Electron/28.1.0 Safari/537.36" etag="PWj7vBa5x62cpn33IuUy" version="24.1.0" type="device">
  <diagram name="Página-1" id="MyzGb4AWoMDugNOR0tzc">
    <mxGraphModel dx="4438" dy="3088" grid="1" gridSize="10" guides="1" tooltips="1" connect="1" arrows="1" fold="1" page="1" pageScale="1" pageWidth="1169" pageHeight="827" math="0" shadow="0">
      <root>
        <mxCell id="0" />
        <mxCell id="1" parent="0" />
        <mxCell id="mkdnd21y6ApAW0Ob3dTZ-105" value="2023 / 2024" style="rounded=0;whiteSpace=wrap;html=1;fillColor=#008a00;fontColor=#ffffff;strokeColor=#005700;" parent="1" vertex="1">
          <mxGeometry x="-2320" y="-1620" width="160" height="20" as="geometry" />
        </mxCell>
        <mxCell id="mkdnd21y6ApAW0Ob3dTZ-106" value="2022 / 2023" style="rounded=0;whiteSpace=wrap;html=1;fillColor=#e3c800;fontColor=#000000;strokeColor=#B09500;" parent="1" vertex="1">
          <mxGeometry x="-2320" y="-1600" width="160" height="20" as="geometry" />
        </mxCell>
        <mxCell id="mkdnd21y6ApAW0Ob3dTZ-107" value="2021 / 2022" style="rounded=0;whiteSpace=wrap;html=1;fillColor=#f5f5f5;fontColor=#333333;strokeColor=#666666;" parent="1" vertex="1">
          <mxGeometry x="-2320" y="-1580" width="160" height="20" as="geometry" />
        </mxCell>
        <mxCell id="mkdnd21y6ApAW0Ob3dTZ-108" value="2019 / 2020" style="rounded=0;whiteSpace=wrap;html=1;fillColor=#0050ef;fontColor=#ffffff;strokeColor=#001DBC;" parent="1" vertex="1">
          <mxGeometry x="-2320" y="-1560" width="160" height="20" as="geometry" />
        </mxCell>
        <mxCell id="mkdnd21y6ApAW0Ob3dTZ-109" value="2018 / 2019" style="rounded=0;whiteSpace=wrap;html=1;fillColor=#fa6800;fontColor=#000000;strokeColor=#C73500;" parent="1" vertex="1">
          <mxGeometry x="-2320" y="-1540" width="160" height="20" as="geometry" />
        </mxCell>
        <mxCell id="mkdnd21y6ApAW0Ob3dTZ-110" value="&amp;nbsp;Legenda Matrículas:" style="rounded=0;whiteSpace=wrap;html=1;" parent="1" vertex="1">
          <mxGeometry x="-2320" y="-1640" width="160" height="20" as="geometry" />
        </mxCell>
        <mxCell id="mkdnd21y6ApAW0Ob3dTZ-111" value="2017 / 2018" style="rounded=0;whiteSpace=wrap;html=1;fillColor=#000066;fontColor=#ffffff;strokeColor=#432D57;" parent="1" vertex="1">
          <mxGeometry x="-2320" y="-1520" width="160" height="20" as="geometry" />
        </mxCell>
        <mxCell id="mkdnd21y6ApAW0Ob3dTZ-112" value="2016 / 2017" style="rounded=0;whiteSpace=wrap;html=1;fillColor=#f0a30a;fontColor=#000000;strokeColor=#BD7000;" parent="1" vertex="1">
          <mxGeometry x="-2320" y="-1500" width="160" height="21" as="geometry" />
        </mxCell>
        <mxCell id="mkdnd21y6ApAW0Ob3dTZ-113" value="2015 / 2016" style="rounded=0;whiteSpace=wrap;html=1;fillColor=#CCCCCC;strokeColor=#666666;fontColor=#333333;" parent="1" vertex="1">
          <mxGeometry x="-2320" y="-1479" width="160" height="20" as="geometry" />
        </mxCell>
        <mxCell id="mkdnd21y6ApAW0Ob3dTZ-193" value="2014 / 2015" style="rounded=0;whiteSpace=wrap;html=1;fillColor=#d80073;fontColor=#ffffff;strokeColor=#A50040;" parent="1" vertex="1">
          <mxGeometry x="-2320" y="-1459" width="160" height="20" as="geometry" />
        </mxCell>
        <mxCell id="mkdnd21y6ApAW0Ob3dTZ-196" value="2013 / 2014" style="rounded=0;whiteSpace=wrap;html=1;fillColor=#a20025;fontColor=#ffffff;strokeColor=#6F0000;" parent="1" vertex="1">
          <mxGeometry x="-2320" y="-1439" width="160" height="20" as="geometry" />
        </mxCell>
        <mxCell id="mkdnd21y6ApAW0Ob3dTZ-197" value="2012&lt;span style=&quot;background-color: initial;&quot;&gt;&amp;nbsp;/ 2013&lt;/span&gt;" style="rounded=0;whiteSpace=wrap;html=1;fillColor=#60a917;fontColor=#ffffff;strokeColor=#2D7600;" parent="1" vertex="1">
          <mxGeometry x="-2320" y="-1419" width="160" height="20" as="geometry" />
        </mxCell>
        <mxCell id="mkdnd21y6ApAW0Ob3dTZ-198" value="2011&lt;span style=&quot;background-color: initial;&quot;&gt;&amp;nbsp;/ 2012&lt;/span&gt;" style="rounded=0;whiteSpace=wrap;html=1;fillColor=#1ba1e2;fontColor=#ffffff;strokeColor=#006EAF;" parent="1" vertex="1">
          <mxGeometry x="-2320" y="-1399" width="160" height="20" as="geometry" />
        </mxCell>
        <mxCell id="mkdnd21y6ApAW0Ob3dTZ-199" value="2010&lt;span style=&quot;background-color: initial;&quot;&gt;&amp;nbsp;/ 2011&lt;/span&gt;" style="rounded=0;whiteSpace=wrap;html=1;fillColor=#FFFF00;fontColor=#000000;" parent="1" vertex="1">
          <mxGeometry x="-2320" y="-1379" width="160" height="20" as="geometry" />
        </mxCell>
        <mxCell id="mkdnd21y6ApAW0Ob3dTZ-201" value="2010+" style="rounded=0;whiteSpace=wrap;html=1;fillColor=#a0522d;strokeColor=#6D1F00;fontColor=#ffffff;" parent="1" vertex="1">
          <mxGeometry x="-2320" y="-1359" width="160" height="20" as="geometry" />
        </mxCell>
        <mxCell id="mkdnd21y6ApAW0Ob3dTZ-207" value="&lt;div&gt;Pavlo&amp;nbsp;&lt;/div&gt;&lt;div&gt;(&lt;i&gt;&lt;font face=&quot;Times New Roman&quot;&gt;????&lt;/font&gt;&lt;/i&gt;)&lt;/div&gt;" style="rounded=0;whiteSpace=wrap;html=1;" parent="1" vertex="1">
          <mxGeometry x="-1760" y="-1560" width="120" height="40" as="geometry" />
        </mxCell>
        <mxCell id="mkdnd21y6ApAW0Ob3dTZ-208" value="&lt;div&gt;Gonçalo Eugênio&amp;nbsp;&lt;/div&gt;&lt;div&gt;(&lt;font face=&quot;Times New Roman&quot;&gt;&lt;i&gt;Captião G&lt;/i&gt;&lt;/font&gt;)&lt;/div&gt;" style="rounded=0;whiteSpace=wrap;html=1;fillColor=#0050ef;fontColor=#ffffff;strokeColor=#001DBC;" parent="1" vertex="1">
          <mxGeometry x="-1760" y="-1480" width="120" height="40" as="geometry" />
        </mxCell>
        <mxCell id="mkdnd21y6ApAW0Ob3dTZ-209" value="&lt;div&gt;Diogo Pedroso&lt;/div&gt;&lt;div&gt;(&lt;font face=&quot;Times New Roman&quot;&gt;&lt;i&gt;Calhau&lt;/i&gt;&lt;/font&gt;)&lt;/div&gt;" style="rounded=0;whiteSpace=wrap;html=1;fillColor=#0050ef;fontColor=#ffffff;strokeColor=#001DBC;" parent="1" vertex="1">
          <mxGeometry x="-1420" y="-1480" width="120" height="40" as="geometry" />
        </mxCell>
        <mxCell id="mkdnd21y6ApAW0Ob3dTZ-210" value="&lt;div&gt;Beatriz Santos&amp;nbsp;&lt;/div&gt;&lt;div&gt;(&lt;font face=&quot;Times New Roman&quot;&gt;&lt;i&gt;Pesos &amp;amp; CO&lt;/i&gt;&lt;/font&gt;)&lt;/div&gt;" style="rounded=0;whiteSpace=wrap;html=1;fillColor=#fa6800;fontColor=#000000;strokeColor=#C73500;" parent="1" vertex="1">
          <mxGeometry x="-2040" y="-1480" width="120" height="40" as="geometry" />
        </mxCell>
        <mxCell id="mkdnd21y6ApAW0Ob3dTZ-211" value="&lt;div&gt;Francisco Bernardino&amp;nbsp;&lt;/div&gt;&lt;div&gt;(&lt;font face=&quot;Times New Roman&quot;&gt;&lt;i&gt;Xico Não da Tina&lt;/i&gt;&lt;/font&gt;)&lt;/div&gt;" style="rounded=0;whiteSpace=wrap;html=1;fillColor=#f5f5f5;fontColor=#333333;strokeColor=#666666;" parent="1" vertex="1">
          <mxGeometry x="-2040" y="-1400" width="120" height="40" as="geometry" />
        </mxCell>
        <mxCell id="mkdnd21y6ApAW0Ob3dTZ-212" value="&lt;div&gt;Tiago Coimbra&amp;nbsp;&lt;/div&gt;&lt;div&gt;(&lt;font face=&quot;Times New Roman&quot;&gt;&lt;i&gt;PT&lt;/i&gt;&lt;/font&gt;)&lt;/div&gt;" style="rounded=0;whiteSpace=wrap;html=1;fillColor=#e3c800;fontColor=#000000;strokeColor=#B09500;" parent="1" vertex="1">
          <mxGeometry x="-1880" y="-1400" width="120" height="40" as="geometry" />
        </mxCell>
        <mxCell id="mkdnd21y6ApAW0Ob3dTZ-214" value="&lt;div&gt;Rafael Guilherme&amp;nbsp;&lt;/div&gt;&lt;div&gt;(&lt;font face=&quot;Times New Roman&quot;&gt;&lt;i&gt;Shywo&lt;/i&gt;&lt;/font&gt;)&lt;/div&gt;" style="rounded=0;whiteSpace=wrap;html=1;fillColor=#e3c800;fontColor=#000000;strokeColor=#B09500;" parent="1" vertex="1">
          <mxGeometry x="-1760" y="-1400" width="120" height="40" as="geometry" />
        </mxCell>
        <mxCell id="mkdnd21y6ApAW0Ob3dTZ-215" value="&lt;div&gt;Rodrigo Meneses&amp;nbsp;&lt;/div&gt;&lt;div&gt;(&lt;font face=&quot;Times New Roman&quot;&gt;&lt;i&gt;Madorgas&lt;/i&gt;&lt;/font&gt;)&lt;/div&gt;" style="rounded=0;whiteSpace=wrap;html=1;fillColor=#e3c800;fontColor=#000000;strokeColor=#B09500;" parent="1" vertex="1">
          <mxGeometry x="-1640" y="-1400" width="120" height="40" as="geometry" />
        </mxCell>
        <mxCell id="mkdnd21y6ApAW0Ob3dTZ-216" value="&lt;div&gt;Catarina Pedro&lt;/div&gt;&lt;div&gt;(&lt;font face=&quot;Times New Roman&quot;&gt;&lt;i&gt;Shazam&lt;/i&gt;&lt;/font&gt;)&lt;/div&gt;" style="rounded=0;whiteSpace=wrap;html=1;fillColor=#f5f5f5;fontColor=#333333;strokeColor=#666666;" parent="1" vertex="1">
          <mxGeometry x="-1480" y="-1400" width="120" height="40" as="geometry" />
        </mxCell>
        <mxCell id="mkdnd21y6ApAW0Ob3dTZ-217" value="&lt;div&gt;Rodrigo Gonçalves&lt;/div&gt;&lt;div&gt;(&lt;font face=&quot;Times New Roman&quot;&gt;&lt;i&gt;Eish&lt;/i&gt;&lt;/font&gt;)&lt;/div&gt;" style="rounded=0;whiteSpace=wrap;html=1;fillColor=#e3c800;fontColor=#000000;strokeColor=#B09500;" parent="1" vertex="1">
          <mxGeometry x="-1360" y="-1400" width="120" height="40" as="geometry" />
        </mxCell>
        <mxCell id="mkdnd21y6ApAW0Ob3dTZ-218" value="" style="endArrow=none;html=1;rounded=0;exitX=0.5;exitY=0;exitDx=0;exitDy=0;entryX=0.5;entryY=1;entryDx=0;entryDy=0;" parent="1" source="mkdnd21y6ApAW0Ob3dTZ-217" target="mkdnd21y6ApAW0Ob3dTZ-209" edge="1">
          <mxGeometry width="50" height="50" relative="1" as="geometry">
            <mxPoint x="-940" y="-1709" as="sourcePoint" />
            <mxPoint x="-940" y="-1750" as="targetPoint" />
          </mxGeometry>
        </mxCell>
        <mxCell id="mkdnd21y6ApAW0Ob3dTZ-219" value="" style="endArrow=none;html=1;rounded=0;exitX=0.5;exitY=0;exitDx=0;exitDy=0;entryX=0.5;entryY=1;entryDx=0;entryDy=0;" parent="1" source="mkdnd21y6ApAW0Ob3dTZ-216" target="mkdnd21y6ApAW0Ob3dTZ-209" edge="1">
          <mxGeometry width="50" height="50" relative="1" as="geometry">
            <mxPoint x="-1290" y="-1390" as="sourcePoint" />
            <mxPoint x="-1350" y="-1430" as="targetPoint" />
          </mxGeometry>
        </mxCell>
        <mxCell id="mkdnd21y6ApAW0Ob3dTZ-220" value="" style="endArrow=none;html=1;rounded=0;exitX=0.5;exitY=0;exitDx=0;exitDy=0;entryX=0.5;entryY=1;entryDx=0;entryDy=0;" parent="1" source="mkdnd21y6ApAW0Ob3dTZ-209" target="mkdnd21y6ApAW0Ob3dTZ-207" edge="1">
          <mxGeometry width="50" height="50" relative="1" as="geometry">
            <mxPoint x="-1280" y="-1380" as="sourcePoint" />
            <mxPoint x="-1340" y="-1420" as="targetPoint" />
          </mxGeometry>
        </mxCell>
        <mxCell id="mkdnd21y6ApAW0Ob3dTZ-221" value="" style="endArrow=none;html=1;rounded=0;exitX=0.5;exitY=0;exitDx=0;exitDy=0;entryX=0.5;entryY=1;entryDx=0;entryDy=0;" parent="1" source="mkdnd21y6ApAW0Ob3dTZ-208" target="mkdnd21y6ApAW0Ob3dTZ-207" edge="1">
          <mxGeometry width="50" height="50" relative="1" as="geometry">
            <mxPoint x="-1270" y="-1370" as="sourcePoint" />
            <mxPoint x="-1330" y="-1410" as="targetPoint" />
          </mxGeometry>
        </mxCell>
        <mxCell id="mkdnd21y6ApAW0Ob3dTZ-222" value="" style="endArrow=none;html=1;rounded=0;exitX=0.5;exitY=0;exitDx=0;exitDy=0;entryX=0.5;entryY=1;entryDx=0;entryDy=0;" parent="1" source="mkdnd21y6ApAW0Ob3dTZ-210" target="mkdnd21y6ApAW0Ob3dTZ-207" edge="1">
          <mxGeometry width="50" height="50" relative="1" as="geometry">
            <mxPoint x="-1260" y="-1360" as="sourcePoint" />
            <mxPoint x="-1320" y="-1400" as="targetPoint" />
          </mxGeometry>
        </mxCell>
        <mxCell id="mkdnd21y6ApAW0Ob3dTZ-223" value="" style="endArrow=none;html=1;rounded=0;exitX=0.5;exitY=0;exitDx=0;exitDy=0;entryX=0.5;entryY=1;entryDx=0;entryDy=0;" parent="1" source="mkdnd21y6ApAW0Ob3dTZ-215" target="mkdnd21y6ApAW0Ob3dTZ-208" edge="1">
          <mxGeometry width="50" height="50" relative="1" as="geometry">
            <mxPoint x="-1250" y="-1350" as="sourcePoint" />
            <mxPoint x="-1310" y="-1390" as="targetPoint" />
          </mxGeometry>
        </mxCell>
        <mxCell id="mkdnd21y6ApAW0Ob3dTZ-224" value="" style="endArrow=none;html=1;rounded=0;exitX=0.5;exitY=0;exitDx=0;exitDy=0;entryX=0.5;entryY=1;entryDx=0;entryDy=0;" parent="1" source="mkdnd21y6ApAW0Ob3dTZ-214" target="mkdnd21y6ApAW0Ob3dTZ-208" edge="1">
          <mxGeometry width="50" height="50" relative="1" as="geometry">
            <mxPoint x="-1240" y="-1340" as="sourcePoint" />
            <mxPoint x="-1300" y="-1380" as="targetPoint" />
          </mxGeometry>
        </mxCell>
        <mxCell id="mkdnd21y6ApAW0Ob3dTZ-225" value="" style="endArrow=none;html=1;rounded=0;exitX=0.5;exitY=0;exitDx=0;exitDy=0;entryX=0.5;entryY=1;entryDx=0;entryDy=0;" parent="1" source="mkdnd21y6ApAW0Ob3dTZ-212" target="mkdnd21y6ApAW0Ob3dTZ-208" edge="1">
          <mxGeometry width="50" height="50" relative="1" as="geometry">
            <mxPoint x="-1230" y="-1330" as="sourcePoint" />
            <mxPoint x="-1290" y="-1370" as="targetPoint" />
          </mxGeometry>
        </mxCell>
        <mxCell id="mkdnd21y6ApAW0Ob3dTZ-226" value="" style="endArrow=none;html=1;rounded=0;exitX=0.5;exitY=0;exitDx=0;exitDy=0;entryX=0.5;entryY=1;entryDx=0;entryDy=0;" parent="1" source="mkdnd21y6ApAW0Ob3dTZ-211" target="mkdnd21y6ApAW0Ob3dTZ-210" edge="1">
          <mxGeometry width="50" height="50" relative="1" as="geometry">
            <mxPoint x="-1220" y="-1320" as="sourcePoint" />
            <mxPoint x="-1280" y="-1360" as="targetPoint" />
          </mxGeometry>
        </mxCell>
        <mxCell id="mkdnd21y6ApAW0Ob3dTZ-227" value="&lt;div&gt;Carolina Duarte&amp;nbsp;&lt;/div&gt;&lt;div&gt;(&lt;i&gt;&lt;font face=&quot;Times New Roman&quot;&gt;????&lt;/font&gt;&lt;/i&gt;)&lt;/div&gt;" style="rounded=0;whiteSpace=wrap;html=1;" parent="1" vertex="1">
          <mxGeometry x="-1760" y="-1640" width="120" height="40" as="geometry" />
        </mxCell>
        <mxCell id="mkdnd21y6ApAW0Ob3dTZ-228" value="" style="endArrow=none;html=1;rounded=0;exitX=0.5;exitY=0;exitDx=0;exitDy=0;entryX=0.5;entryY=1;entryDx=0;entryDy=0;" parent="1" source="mkdnd21y6ApAW0Ob3dTZ-207" target="mkdnd21y6ApAW0Ob3dTZ-227" edge="1">
          <mxGeometry width="50" height="50" relative="1" as="geometry">
            <mxPoint x="-1350" y="-1469.5" as="sourcePoint" />
            <mxPoint x="-1690" y="-1509.5" as="targetPoint" />
          </mxGeometry>
        </mxCell>
        <mxCell id="mkdnd21y6ApAW0Ob3dTZ-229" value="&lt;div&gt;João Silva&amp;nbsp;&lt;/div&gt;&lt;div&gt;(&lt;font face=&quot;Times New Roman&quot;&gt;&lt;i&gt;????&lt;/i&gt;&lt;/font&gt;)&lt;/div&gt;" style="rounded=0;whiteSpace=wrap;html=1;fillColor=#008a00;fontColor=#ffffff;strokeColor=#005700;" parent="1" vertex="1">
          <mxGeometry x="-2040" y="-1320.5" width="120" height="40" as="geometry" />
        </mxCell>
        <mxCell id="mkdnd21y6ApAW0Ob3dTZ-230" value="" style="endArrow=none;html=1;rounded=0;exitX=0.5;exitY=0;exitDx=0;exitDy=0;entryX=0.5;entryY=1;entryDx=0;entryDy=0;" parent="1" source="mkdnd21y6ApAW0Ob3dTZ-229" target="mkdnd21y6ApAW0Ob3dTZ-211" edge="1">
          <mxGeometry width="50" height="50" relative="1" as="geometry">
            <mxPoint x="-1970" y="-1389.5" as="sourcePoint" />
            <mxPoint x="-1970" y="-1429.5" as="targetPoint" />
          </mxGeometry>
        </mxCell>
        <mxCell id="mkdnd21y6ApAW0Ob3dTZ-259" value="Não sabemos ano" style="rounded=0;whiteSpace=wrap;html=1;" parent="1" vertex="1">
          <mxGeometry x="-2320" y="-1339" width="160" height="20" as="geometry" />
        </mxCell>
      </root>
    </mxGraphModel>
  </diagram>
</mxfile>
